<svg width="64" height="64" viewBox="0 0 64 64" fill="none" xmlns="http://www.w3.org/2000/svg">
  <defs>
    <linearGradient id="g1" x1="10" y1="8" x2="48" y2="56" gradientUnits="userSpaceOnUse">
      <stop offset="0" stop-color="#20C8FF"/>
      <stop offset="0.35" stop-color="#2563EB"/>
      <stop offset="0.66" stop-color="#7C3AED"/>
      <stop offset="1" stop-color="#F97316"/>
    </linearGradient>
    <linearGradient id="g2" x1="12" y1="16" x2="42" y2="52" gradientUnits="userSpaceOnUse">
      <stop offset="0" stop-color="#FDE047"/>
      <stop offset="1" stop-color="#EF4444"/>
    </linearGradient>
  </defs>
  <rect width="64" height="64" rx="15" fill="#F7FAFF"/>
  <path d="M13 15.5C13 11.91 15.91 9 19.5 9H45.5C49.09 9 52 11.91 52 15.5C52 19.09 49.09 22 45.5 22H36V47.5C36 52.19 32.19 56 27.5 56C22.81 56 19 52.19 19 47.5V22H19.5C15.91 22 13 19.09 13 15.5Z" fill="url(#g1)"/>
  <path d="M18 16C18 13.79 19.79 12 22 12H45C47.21 12 49 13.79 49 16C49 18.21 47.21 20 45 20H33V47C33 49.76 30.76 52 28 52C25.24 52 23 49.76 23 47V20H22C19.79 20 18 18.21 18 16Z" fill="url(#g2)" fill-opacity="0.88"/>
  <path d="M14 15.5C14 12.46 16.46 10 19.5 10H44.5" stroke="#0EA5E9" stroke-width="2.5" stroke-linecap="round"/>
</svg>
